<?xml version="1.0" encoding="UTF-8" standalone="no"?>
<svg
   xmlns:dc="http://purl.org/dc/elements/1.1/"
   xmlns:cc="http://creativecommons.org/ns#"
   xmlns:rdf="http://www.w3.org/1999/02/22-rdf-syntax-ns#"
   xmlns:svg="http://www.w3.org/2000/svg"
   xmlns="http://www.w3.org/2000/svg"
   xmlns:xlink="http://www.w3.org/1999/xlink"
   xmlns:sodipodi="http://sodipodi.sourceforge.net/DTD/sodipodi-0.dtd"
   xmlns:inkscape="http://www.inkscape.org/namespaces/inkscape"
   width="256"
   height="256"
   viewBox="0 0 67.733332 67.733335"
   version="1.1"
   id="svg8"
   inkscape:export-filename="X:\PaladinMod\PaladinUnityProject\Paladin\Assets\Samus\texSamusIcon.png"
   inkscape:export-xdpi="96.000008"
   inkscape:export-ydpi="96.000008"
   inkscape:version="1.0.1 (3bc2e813f5, 2020-09-07)"
   sodipodi:docname="samus icon.svg">
  <defs
     id="defs2" />
  <sodipodi:namedview
     id="base"
     pagecolor="#ffffff"
     bordercolor="#666666"
     borderopacity="1.0"
     inkscape:pageopacity="0.0"
     inkscape:pageshadow="2"
     inkscape:zoom="2.002327"
     inkscape:cx="28.493291"
     inkscape:cy="97.879055"
     inkscape:document-units="px"
     inkscape:current-layer="layer1"
     inkscape:document-rotation="0"
     showgrid="false"
     inkscape:snap-smooth-nodes="true"
     units="px"
     inkscape:window-width="1920"
     inkscape:window-height="1027"
     inkscape:window-x="-8"
     inkscape:window-y="-8"
     inkscape:window-maximized="1" />
  <metadata
     id="metadata5">
    <rdf:RDF>
      <cc:Work
         rdf:about="">
        <dc:format>image/svg+xml</dc:format>
        <dc:type
           rdf:resource="http://purl.org/dc/dcmitype/StillImage" />
        <dc:title></dc:title>
      </cc:Work>
    </rdf:RDF>
  </metadata>
  <g
     inkscape:label="Layer 1"
     inkscape:groupmode="layer"
     id="layer1">
    <image
       width="33.866665"
       height="33.866665"
       preserveAspectRatio="none"
       xlink:href="file:///D:/RoR2%20modding/ssbu-icons/Super%20Smash%20Bros%20Ultimate/Fighter%20Portraits/Samus/chara_0_samus_00.png"
       id="image843"
       sodipodi:absref="D:\RoR2 modding\ssbu-icons\Super Smash Bros Ultimate\Fighter Portraits\Samus\chara_0_samus_00.png"
       x="0.055160128"
       y="0"
       sodipodi:insensitive="true"
       style="display:none" />
    <g
       id="g1125"
       transform="matrix(1.9937979,0,0,2.0000186,0,-0.1037416)">
      <path
         style="font-variation-settings:normal;opacity:1;vector-effect:none;fill:#a00a00;fill-opacity:1;stroke:#a00a00;stroke-width:0.1;stroke-linecap:butt;stroke-linejoin:miter;stroke-miterlimit:4;stroke-dasharray:none;stroke-dashoffset:0;stroke-opacity:1;stop-color:#000000;stop-opacity:1"
         d="m 14.63316,9.4558989 7.12446,4.2746801 2.46437,-1.40154 0.36005,-5.1862601 1.61378,-1.90316 0.0818,-1.26722 C 23.6537,1.0649189 20.52459,0.50454889 17.03912,0.45103889 14.57666,2.6224189 14.24704,5.8602289 14.63316,9.4558989 Z"
         id="path966"
         sodipodi:nodetypes="cccccccc" />
      <path
         style="font-variation-settings:normal;opacity:1;vector-effect:none;fill:#a00a00;fill-opacity:1;stroke:#a00a00;stroke-width:0.1;stroke-linecap:butt;stroke-linejoin:miter;stroke-miterlimit:4;stroke-dasharray:none;stroke-dashoffset:0;stroke-opacity:1;stop-color:#000000;stop-opacity:1"
         d="m 8.0658905,13.613939 -0.43231,-2.55105 0.43703,-0.29529 -0.58976,-0.43375 c -0.0769,-1.3713501 -0.0637,-2.7364901 0.74883,-4.0465001 1.33781,-2.9069 3.9569895,-4.91823 8.1904295,-5.80131001 C 14.76821,3.0098889 14.46954,6.3695589 13.80392,9.5025789 11.64671,10.219579 9.8403905,11.466999 9.0153405,14.197719 Z"
         id="path964"
         sodipodi:nodetypes="ccccccccc" />
      <path
         style="font-variation-settings:normal;opacity:1;vector-effect:none;fill:#a00a00;fill-opacity:1;stroke:#a00a00;stroke-width:0.1;stroke-linecap:butt;stroke-linejoin:miter;stroke-miterlimit:4;stroke-dasharray:none;stroke-dashoffset:0;stroke-opacity:1;stop-color:#000000;stop-opacity:1"
         d="m 9.6460305,14.991919 c 1.2423395,0.94291 1.9745195,2.91922 4.3342895,1.59861 4.38942,0.24727 6.00346,-0.99727 7.39188,-2.61472 -1.64293,-2.11161 -4.11855,-4.6405901 -6.84416,-4.0294101 -1.50339,0 -2.06664,0.1975101 -3.47846,1.4461301 -0.89292,0.7897 -2.0413795,2.39102 -1.4035495,3.59939 z"
         id="path962"
         sodipodi:nodetypes="ccccsc" />
      <path
         style="font-variation-settings:normal;opacity:1;vector-effect:none;fill:#202020;fill-opacity:1;stroke:#202020;stroke-width:0.1;stroke-linecap:butt;stroke-linejoin:miter;stroke-miterlimit:4;stroke-dasharray:none;stroke-dashoffset:0;stroke-opacity:1;stop-color:#000000;stop-opacity:1"
         d="m 18.43427,24.550729 0.14467,-0.47283 6.91844,-5.47305 0.91469,-3.15992 2.38227,1.3006 -0.48102,1.4671 -0.31571,-0.0819 -2.16328,0.50822 c -0.0531,1.2517 -0.83086,2.31967 -2.44739,3.175 -1.62153,0.96609 -3.09372,2.20597 -4.95267,2.73678 z"
         id="path960"
         sodipodi:nodetypes="cccccccccc" />
      <path
         style="font-variation-settings:normal;opacity:1;vector-effect:none;fill:#202020;fill-opacity:1;stroke:#202020;stroke-width:0.1;stroke-linecap:butt;stroke-linejoin:miter;stroke-miterlimit:4;stroke-dasharray:none;stroke-dashoffset:0;stroke-opacity:1;stop-color:#000000;stop-opacity:1"
         d="m 11.07087,25.178079 2.28705,0.8371 1.40316,2.2768 2.6894,-0.3274 0.72497,-1.90597 2.31522,-0.57296 5.91668,-4.99293 1.59026,-2.36199 0.31571,0.0819 -0.22179,0.9297 -0.38343,0.18552 -3.87005,5.72058 -8.17255,6.60262 -2.54153,1.17985 -1.29708,-2.13682 z"
         id="path939" />
      <path
         id="path949"
         style="font-variation-settings:normal;opacity:1;vector-effect:none;fill:#a00a00;fill-opacity:1;stroke:#a00a00;stroke-width:0.1;stroke-linecap:butt;stroke-linejoin:miter;stroke-miterlimit:4;stroke-dasharray:none;stroke-dashoffset:0;stroke-opacity:1;stop-color:#000000;stop-opacity:1"
         d="m 27.361868,5.3255489 -0.411861,0.47749 -0.328147,-0.19068 -1.644343,1.91926 -0.375688,4.6074701 -0.22221,0.88987 -0.115236,1.7632 -0.230995,2.16679 c -1.365697,1.4297 -2.564535,2.85147 -4.401283,4.33514 1.592305,-1.33614 2.967437,-2.86121 4.401283,-4.33514 l 0.346231,-3.92999 -0.76481,0.5147 -0.504878,3.2308 -6.518984,5.67666 -0.163814,1.43247 -0.103351,3.20084 -0.15348,0.49454 -1.116727,-0.006 -0.216524,-0.51263 -0.485243,-3.15898 -0.105418,-1.36219 -4.220932,-4.87618 -0.6831625,-2.48409 -0.6500892,-0.74052 -0.626319,-0.82424 0.7963349,3.08301 1.2578028,3.30729 -0.6320023,0.52555 0.044442,0.28216 c -0.028699,2.48232 1.6639883,2.8606 3.1574293,3.48247 l 0.668176,1.72083 c 0.46201,0.75644 0.621075,1.38045 1.403016,2.27686 0.857989,-0.0283 1.628371,0.12675 2.689241,-0.32763 0.844431,-1.159 0.762114,-2.58819 1.128615,-3.88658 1.418595,-0.76881 2.519553,-1.57751 3.592544,-2.38952 1.164079,-1.07232 2.314654,-2.13349 3.325895,-3.08354 0.288541,-0.92692 0.417456,-1.88942 0.957048,-2.76055 1.09742,-0.4932 1.799468,0.002 2.339909,0.90124 l 3.072164,-4.47828 c -0.722321,-1.38452 -1.631326,-2.04525 -2.493904,-2.5585001 -0.534922,-1.48837 -1.308021,-3.33937 -2.01073,-4.3832 z" />
      <path
         id="path932"
         style="font-variation-settings:normal;opacity:1;vector-effect:none;fill:#5c5c5c;fill-opacity:1;stroke:#5c5c5c;stroke-width:0.1;stroke-linecap:butt;stroke-linejoin:miter;stroke-miterlimit:4;stroke-dasharray:none;stroke-dashoffset:0;stroke-opacity:1;stop-color:#000000;stop-opacity:1"
         d="m 12.074944,26.144439 c 0.14333,0.72439 0.474758,1.42105 0.125058,2.21795 0.478269,0.50214 0.948804,0.95788 1.480013,1.77767 l 0.248047,-0.56224 0.107487,0.30592 c 0.234939,-0.0114 0.448495,0.0585 0.628385,0.25632 0.835419,0.0605 1.557181,0.0238 2.323372,0.0248 1.849131,-1.11811 4.36535,-3.12083 5.152142,-3.90726 -1.822405,0.97908 -2.824782,1.70394 -4.300514,2.29496 -1.858399,-0.0923 -2.413807,0.17411 -2.413807,-0.14056 l -1.124479,-0.10749 -0.05788,0.46302 -0.314708,-0.16537 c -0.69459,-1.66453 -1.262356,-1.93535 -1.853118,-2.45773 z"
         sodipodi:nodetypes="cccccccccccccc" />
      <path
         style="font-variation-settings:normal;opacity:1;vector-effect:none;fill:#b65800;fill-opacity:1;stroke:#b65800;stroke-width:0.1;stroke-linecap:butt;stroke-linejoin:miter;stroke-miterlimit:4;stroke-dasharray:none;stroke-dashoffset:0;stroke-opacity:1;stop-color:#000000;stop-opacity:1"
         d="m 33.90456,20.402519 -0.85219,-0.11693 c -1.15264,-0.0146 -1.64877,0.60733 -2.07812,1.29407 l 0.50167,0.54636 -0.31838,0.50573 c 0.48588,0.48071 1.0092,1.00227 1.80044,0.69174 l -1.48206,-1.19747 c 0.34957,-0.56269 0.83381,-0.99683 1.67105,-1.09401 l 0.75759,0.10631 z"
         id="path924"
         sodipodi:nodetypes="cccccccccc" />
      <path
         style="font-variation-settings:normal;opacity:1;vector-effect:none;fill:#202020;fill-opacity:1;stroke:#202020;stroke-width:0.1;stroke-linecap:butt;stroke-linejoin:miter;stroke-miterlimit:4;stroke-dasharray:none;stroke-dashoffset:0;stroke-opacity:1;stop-color:#000000;stop-opacity:1"
         d="m 30.72206,16.944719 -1.08869,2.49164 -1.44729,0.78647 1.35833,-0.88939 c 0.27248,-0.64337 0.27905,-1.54346 0.61005,-2.09069 0.10623,-0.17562 0.43128,-0.17186 0.5676,-0.29803 z"
         id="path922"
         sodipodi:nodetypes="ccccsc" />
      <path
         style="font-variation-settings:normal;opacity:1;vector-effect:none;fill:#b65800;fill-opacity:1;stroke:#b65800;stroke-width:0.1;stroke-linecap:butt;stroke-linejoin:miter;stroke-miterlimit:4;stroke-dasharray:none;stroke-dashoffset:0;stroke-opacity:1;stop-color:#000000;stop-opacity:1"
         d="m 33.90456,11.251879 v -1.07242 l -2.03823,2.08804 c -2.27875,1.68291 -3.65779,5.90287 -3.7748,6.87478 l 0.0532,0.2713 -0.31316,0.27182 -0.0119,0.33073 0.36639,0.2067 c 0.20873,-0.19884 0.38439,-0.38446 1.35835,-0.88939 0.38714,-0.80706 0.67864,-1.80539 1.17765,-2.38872 0,-0.79082 2.71125,-5.69284 3.1825,-5.69284 z"
         id="path918"
         sodipodi:nodetypes="ccccccccccc" />
      <path
         style="font-variation-settings:normal;opacity:1;vector-effect:none;fill:#c06e00;fill-opacity:1;stroke:#c06e00;stroke-width:0.1;stroke-linecap:butt;stroke-linejoin:miter;stroke-miterlimit:4;stroke-dasharray:none;stroke-dashoffset:0;stroke-opacity:1;stop-color:#000000;stop-opacity:1"
         d="m 32.33405,30.116099 0.62642,-2.80633 c 0.11058,-0.97691 0.32547,-1.79962 0.94409,-2.02552 l -2.7e-4,-2.39278 c -0.2859,0.15309 -0.40114,0.35869 -0.94628,0.43202 l -1.02769,-0.15008 c -0.28277,-0.0759 -0.70164,-0.45197 -0.77278,-0.54166 l 0.31838,-0.50573 -0.50167,-0.54636 c 0.45802,-0.67275 1.07134,-1.18576 2.07812,-1.29407 0.28162,0.0101 0.5853,-0.0257 0.85219,0.11693 l 3e-5,-8.44193 c -0.2779,0 -2.42243,3.57454 -2.42243,4.41618 l -0.76007,0.56795 c -0.33005,0.95376 -0.71721,1.69334 -1.08872,2.49164 -0.59451,0.34115 -1.14183,0.77668 -1.79556,0.99938 l -0.49093,5.0953 0.20154,0.15503 -0.0119,0.57877 -0.2837,0.21239 0.0119,1.64184 v 0.49609 c -0.0775,0.45615 -0.3081,0.98038 -0.12992,1.32292 l 3.15375,0.11812 z"
         id="path920"
         sodipodi:nodetypes="ccccccccccccccccccccccccc" />
      <path
         style="font-variation-settings:normal;opacity:1;vector-effect:none;fill:#c06e00;fill-opacity:1;stroke:#c06e00;stroke-width:0.1;stroke-linecap:butt;stroke-linejoin:miter;stroke-miterlimit:4;stroke-dasharray:none;stroke-dashoffset:0;stroke-opacity:1;stop-color:#000000;stop-opacity:1"
         d="m 30.90582,33.867859 c 0.53286,-1.95921 1.57542,-3.81648 2.99874,-5.59759 l 0.0173,5.59639 z"
         id="path916"
         sodipodi:nodetypes="cccc" />
      <path
         style="font-variation-settings:normal;opacity:1;vector-effect:none;fill:#202020;fill-opacity:1;stroke:#202020;stroke-width:0.1;stroke-linecap:butt;stroke-linejoin:miter;stroke-miterlimit:4;stroke-dasharray:none;stroke-dashoffset:0;stroke-opacity:1;stop-color:#000000;stop-opacity:1"
         d="m 33.90456,26.984029 v -1.69978 c -0.76898,0.37989 -0.76807,1.2602 -0.94409,2.02552 0.45374,0.28075 0.63261,-0.20815 0.94409,-0.32574 z"
         id="path910"
         sodipodi:nodetypes="cccc" />
      <path
         style="font-variation-settings:normal;opacity:1;vector-effect:none;fill:#202020;fill-opacity:1;stroke:#202020;stroke-width:0.1;stroke-linecap:butt;stroke-linejoin:miter;stroke-miterlimit:4;stroke-dasharray:none;stroke-dashoffset:0;stroke-opacity:1;stop-color:#000000;stop-opacity:1"
         d="m 30.28854,30.056199 0.54212,0.0181 -0.17337,0.71013 c -0.3881,0 -0.59519,0.70812 -0.0827,1.004 -0.11918,0.65765 -0.48028,1.72363 -0.33335,2.07943 l -0.27924,-3e-5 -0.0668,-2.18991 z"
         id="path906"
         sodipodi:nodetypes="cccccccc" />
      <path
         style="font-variation-settings:normal;opacity:1;vector-effect:none;fill:#1c9200;fill-opacity:1;stroke:#1c9200;stroke-width:0.1;stroke-linecap:butt;stroke-linejoin:miter;stroke-miterlimit:4;stroke-dasharray:none;stroke-dashoffset:0;stroke-opacity:1;stop-color:#000000;stop-opacity:1"
         d="m 24.83149,33.867859 2.96678,-2.58059 c 0.40166,-0.24475 1.04487,-0.32128 0.78108,0.32852 0,0 -0.88444,1.67598 -1.77529,2.25207 z"
         id="path902"
         sodipodi:nodetypes="ccccc" />
      <path
         style="font-variation-settings:normal;opacity:1;vector-effect:none;fill:#202020;fill-opacity:1;stroke:#202020;stroke-width:0.1;stroke-linecap:butt;stroke-linejoin:miter;stroke-miterlimit:4;stroke-dasharray:none;stroke-dashoffset:0;stroke-opacity:1;stop-color:#000000;stop-opacity:1"
         d="m 23.70938,33.867899 4.36444,-3.46314 0.62603,0.0472 -4.38807,3.4159 z"
         id="path900" />
      <path
         style="font-variation-settings:normal;opacity:1;vector-effect:none;fill:#202020;fill-opacity:1;stroke:#202020;stroke-width:0.1;stroke-linecap:butt;stroke-linejoin:miter;stroke-miterlimit:4;stroke-dasharray:none;stroke-dashoffset:0;stroke-opacity:1;stop-color:#000000;stop-opacity:1"
         d="m 18.92567,33.867989 h 1.92526 c 2.55262,-2.1983 4.64814,-4.08577 6.41378,-5.74892 l -0.0119,-1.64184 z"
         id="path896"
         sodipodi:nodetypes="ccccc" />
      <path
         style="font-variation-settings:normal;opacity:1;vector-effect:none;fill:#202020;fill-opacity:1;stroke:#202020;stroke-width:0.1;stroke-linecap:butt;stroke-linejoin:miter;stroke-miterlimit:4;stroke-dasharray:none;stroke-dashoffset:0;stroke-opacity:1;stop-color:#000000;stop-opacity:1"
         d="m 9.4880205,20.530009 c 0.16912,-0.23182 0.29847,-0.51789 0.6319295,-0.52562 -0.7264295,-1.12802 -0.8672995,-2.20725 -1.2579495,-3.30729 0.10772,1.32206 0.14243,2.67623 0.62602,3.83291 z"
         id="path891"
         sodipodi:nodetypes="cccc" />
      <path
         style="font-variation-settings:normal;opacity:1;vector-effect:none;fill:#202020;fill-opacity:1;stroke:#202020;stroke-width:0.1;stroke-linecap:butt;stroke-linejoin:miter;stroke-miterlimit:4;stroke-dasharray:none;stroke-dashoffset:0;stroke-opacity:1;stop-color:#000000;stop-opacity:1"
         d="m 5.6830405,17.526339 -2.364434,-1.78433 1.269531,-1.36976 -0.04655,-1.06062 2.939263,-2.97778 0.58976,0.43375 -4.075055,4.89006 1.866255,1.44104 0.67327,-0.48428 2.30848,5.04271 -2.15849,3.57142 -0.0712,0.91844 -0.44849,0.73352 -0.27066,0.27573 -0.13924,0.90377 -0.0413,0.31892 -0.4075,0.0945 0.0945,0.25986 0.065,0.87407 -2.391881,-1.9135 -1.036815,-0.92167 -1.012524,-1.40526 -0.97029004,-0.53149 -6.1e-5,-1.25787 c 1.38610404,-2.36194 3.39654804,-4.28453 5.62854104,-6.05122 z"
         id="path851"
         sodipodi:nodetypes="cccccccccccccccccccccccccc" />
      <path
         style="font-variation-settings:normal;opacity:1;vector-effect:none;fill:#b7cd00;fill-opacity:1;stroke:#b7cd00;stroke-width:0.1;stroke-linecap:butt;stroke-linejoin:miter;stroke-miterlimit:4;stroke-dasharray:none;stroke-dashoffset:0;stroke-opacity:1;stop-color:#000000;stop-opacity:1"
         d="m 2.9915575,27.741089 c -0.106801,0.74312 0.09804,1.75892 1.406088,3.74003 l 1.150995,0.2386 c 0.1275,-0.71315 0.0874,-1.31471 0.0167,-1.89595 -0.79174,-1.62425 -1.928982,-1.96821 -2.573783,-2.08268 z"
         id="path881"
         sodipodi:nodetypes="ccccc" />
      <path
         style="font-variation-settings:normal;opacity:1;vector-effect:none;fill:#c06e00;fill-opacity:1;stroke:#c06e00;stroke-width:0.1;stroke-linecap:butt;stroke-linejoin:miter;stroke-miterlimit:4;stroke-dasharray:none;stroke-dashoffset:0;stroke-opacity:1;stop-color:#000000;stop-opacity:1"
         d="m 3.4817435,33.867859 c 0.346018,-0.37471 0.892682,-0.70062 1.820107,-0.93391 0.30034,0.007 0.5999,0.0179 0.88479,0.087 0.28322,0.23661 0.60042,0.2694 0.82682,0.84691 z"
         id="path879"
         sodipodi:nodetypes="ccccc" />
      <path
         style="font-variation-settings:normal;opacity:1;vector-effect:none;fill:#b65800;fill-opacity:1;stroke:#b65800;stroke-width:0.1;stroke-linecap:butt;stroke-linejoin:miter;stroke-miterlimit:4;stroke-dasharray:none;stroke-dashoffset:0;stroke-opacity:1;stop-color:#000000;stop-opacity:1"
         d="m 6.1866405,33.020949 c 0.2616,-0.0916 0.4274,-0.22736 0.48428,-0.41342 -0.0894,-0.33361 -0.77301,-0.55599 -1.30603,-0.95462 -1.472701,0.67212 -3.008339,1.32723 -3.683309,2.21495 h 0.955619 c 0.645918,-0.50744 1.188826,-1.05222 2.69309,-1.24851 z"
         id="path877"
         sodipodi:nodetypes="ccccccc" />
      <path
         style="font-variation-settings:normal;opacity:1;vector-effect:none;fill:#b65800;fill-opacity:1;stroke:#b65800;stroke-width:0.1;stroke-linecap:butt;stroke-linejoin:miter;stroke-miterlimit:4;stroke-dasharray:none;stroke-dashoffset:0;stroke-opacity:1;stop-color:#000000;stop-opacity:1"
         d="m 0.77954546,33.857869 0.35914304,0.01 c 1.389412,-0.75021 2.320446,-1.7825 4.226202,-2.21496 l -0.967245,-0.17178 -0.754419,0.12522 -1.095629,0.64821 z"
         id="path875"
         sodipodi:nodetypes="ccccccc" />
      <path
         style="font-variation-settings:normal;opacity:1;vector-effect:none;fill:#b65800;fill-opacity:1;stroke:#b65800;stroke-width:0.1;stroke-linecap:butt;stroke-linejoin:miter;stroke-miterlimit:4;stroke-dasharray:none;stroke-dashoffset:0;stroke-opacity:1;stop-color:#000000;stop-opacity:1"
         d="m 8.2296805,6.2873489 c -2.93934,-0.17694 -5.681226,0.0837 -8.17512004,0.79763 V 23.577529 c 2.32975004,-2.84177 3.97409504,-4.43736 5.62848004,-6.05119 l -2.364433,-1.78433 1.269531,-1.36976 c 0.131976,-0.38722 0.124957,-0.64305 -0.04655,-1.06062 l 2.939262,-2.97778 c 0.0335,-1.1969601 -0.36567,-2.0899101 0.74883,-4.0465001 z"
         id="path847"
         sodipodi:nodetypes="ccccccccc" />
      <path
         style="font-variation-settings:normal;opacity:1;vector-effect:none;fill:#1c9200;fill-opacity:1;stroke:#1c9200;stroke-width:0.1;stroke-linecap:butt;stroke-linejoin:miter;stroke-miterlimit:4;stroke-dasharray:none;stroke-dashoffset:0;stroke-opacity:1;stop-color:#000000;stop-opacity:1"
         d="m 0.05456046,17.061649 c 0.468564,-0.31001 0.364332,-0.69715 0,-0.98555"
         id="path849"
         sodipodi:nodetypes="cc" />
      <path
         style="font-variation-settings:normal;opacity:1;vector-effect:none;fill:#c06e00;fill-opacity:1;stroke:#c06e00;stroke-width:0.1;stroke-linecap:butt;stroke-linejoin:miter;stroke-miterlimit:4;stroke-dasharray:none;stroke-dashoffset:0;stroke-opacity:1;stop-color:#000000;stop-opacity:1"
         d="m 6.5601405,16.814869 -0.10107,-4.27174 -2.463467,3.11453 1.891317,1.60808 z"
         id="path853"
         sodipodi:nodetypes="ccccc" />
      <path
         style="font-variation-settings:normal;opacity:1;vector-effect:none;fill:#5c5c5c;fill-opacity:1;stroke:#5c5c5c;stroke-width:0.1;stroke-linecap:butt;stroke-linejoin:miter;stroke-miterlimit:4;stroke-dasharray:none;stroke-dashoffset:0;stroke-opacity:1;stop-color:#000000;stop-opacity:1"
         d="m 6.0722805,25.989489 c -1.419499,-1.36007 -2.527427,-2.23332 -3.59567,-3.04456 0.0041,-0.38969 0.349377,-0.55551 0.702031,-0.71647 1.152072,0.65292 2.253669,1.42843 3.173659,2.645 -0.13235,0.28531 -0.24691,0.61018 -0.28002,1.11603 z"
         id="path857"
         sodipodi:nodetypes="ccccc" />
      <path
         style="font-variation-settings:normal;opacity:1;vector-effect:none;fill:#5c5c5c;fill-opacity:1;stroke:#5c5c5c;stroke-width:0.1;stroke-linecap:butt;stroke-linejoin:miter;stroke-miterlimit:4;stroke-dasharray:none;stroke-dashoffset:0;stroke-opacity:1;stop-color:#000000;stop-opacity:1"
         d="m 5.5319305,27.334819 c -1.221175,-1.57142 -2.551151,-2.6079 -3.904639,-3.52879 0.04623,-0.20428 0.160039,-0.359 0.49278,-0.35497 1.131786,0.81836 2.151599,1.30399 3.649899,3.21141 -0.16271,0.20328 -0.19777,0.43846 -0.23804,0.67235 z"
         id="path859"
         sodipodi:nodetypes="ccccc" />
      <path
         style="font-variation-settings:normal;opacity:1;vector-effect:none;fill:#c06e00;fill-opacity:1;stroke:#b65800;stroke-width:0.1;stroke-linecap:butt;stroke-linejoin:miter;stroke-miterlimit:4;stroke-dasharray:none;stroke-dashoffset:0;stroke-opacity:1;stop-color:#000000;stop-opacity:1"
         d="m 0.05466946,24.835439 c 0.29782,-0.008 0.626274,-0.006 0.99090004,0.009 0.24439,0.42253 0.488201,0.84495 0.623839,1.24574 -0.474479,0.61841 -0.130213,1.39603 0.173785,2.16581 l 1.800034,3.35035 c -0.311943,0.25868 -0.672365,0.47858 -1.095628,0.64821 -1.072105,-1.19952 -1.76266504,-2.62108 -2.49303904,-3.88726 z"
         id="path863"
         sodipodi:nodetypes="cccccccc" />
      <path
         style="font-variation-settings:normal;opacity:1;vector-effect:none;fill:#c06e00;fill-opacity:1;stroke:#b65800;stroke-width:0.1;stroke-linecap:butt;stroke-linejoin:miter;stroke-miterlimit:4;stroke-dasharray:none;stroke-dashoffset:0;stroke-opacity:1;stop-color:#000000;stop-opacity:1"
         d="m 1.6694085,26.090179 0.368075,0.68201 c 0.594856,0.13131 0.75464,0.56383 0.954074,0.9689 -0.243941,0.83728 0.60879,2.02956 1.048033,3.11484 0.06639,0.25077 0.180359,0.46347 0.358057,0.62519 l -0.754421,0.12517 -1.800035,-3.35035 c -0.356032,-0.83371 -0.566951,-1.613 -0.173783,-2.16576 z"
         id="path865"
         sodipodi:nodetypes="cccccccc" />
      <path
         style="font-variation-settings:normal;opacity:1;vector-effect:none;fill:#202020;fill-opacity:1;stroke:#202020;stroke-width:0.1;stroke-linecap:butt;stroke-linejoin:miter;stroke-miterlimit:4;stroke-dasharray:none;stroke-dashoffset:0;stroke-opacity:1;stop-color:#000000;stop-opacity:1"
         d="m 2.6372035,33.867859 c 0.08892,-0.33184 1.863957,-1.24851 2.693087,-1.24851 0.23831,0.01 0.80779,0.22036 0.85635,0.4016 -0.30204,-0.0809 -0.50842,-0.087 -0.88479,-0.087 -0.37521,0 -1.371258,0.46993 -1.820105,0.93391 z"
         id="path869"
         sodipodi:nodetypes="cccscc" />
      <path
         style="font-variation-settings:normal;opacity:1;vector-effect:none;fill:#c06e00;fill-opacity:1;stroke:#b65800;stroke-width:0.1;stroke-linecap:butt;stroke-linejoin:miter;stroke-miterlimit:4;stroke-dasharray:none;stroke-dashoffset:0;stroke-opacity:1;stop-color:#000000;stop-opacity:1"
         d="m 2.5475975,32.254549 c -0.612766,0.54322 -1.471317,1.17861 -1.76805204,1.60332 l -0.724387,0.009 -0.0047,-0.25514 1.83081904,-1.39378 -1.83081904,0.7087 0.0041,-4.55916 c 0.761843,1.2547 1.19010104,2.31171 2.49303904,3.88706 z"
         id="path871"
         sodipodi:nodetypes="cccccccc" />
      <path
         style="font-variation-settings:normal;opacity:1;vector-effect:none;fill:#202020;fill-opacity:1;stroke:#202020;stroke-width:0.1;stroke-linecap:butt;stroke-linejoin:miter;stroke-miterlimit:4;stroke-dasharray:none;stroke-dashoffset:0;stroke-opacity:1;stop-color:#000000;stop-opacity:1"
         d="m 0.05043046,32.926449 1.83082104,-0.7087 -1.83082104,1.39378 z"
         id="path867" />
      <path
         style="font-variation-settings:normal;opacity:1;vector-effect:none;fill:#c06e00;fill-opacity:1;stroke:#b65800;stroke-width:0.1;stroke-linecap:butt;stroke-linejoin:miter;stroke-miterlimit:4;stroke-dasharray:none;stroke-dashoffset:0;stroke-opacity:1;stop-color:#000000;stop-opacity:1"
         d="m 1.1386885,33.867859 c 1.120208,-1.1707 2.720383,-2.21496 4.226202,-2.21496 -1.35733,0.68944 -2.735842,1.26749 -3.683309,2.21496 z"
         id="path873"
         sodipodi:nodetypes="cccc" />
      <path
         style="font-variation-settings:normal;opacity:1;vector-effect:none;fill:#202020;fill-opacity:1;stroke:#202020;stroke-width:0.1;stroke-linecap:butt;stroke-linejoin:miter;stroke-miterlimit:4;stroke-dasharray:none;stroke-dashoffset:0;stroke-opacity:1;stop-color:#000000;stop-opacity:1"
         d="m 7.4738105,33.867859 -0.78874,-8.63931 0.35025,-0.70841 0.27562,0.0168 0.37585,9.33092 z"
         id="path885" />
      <path
         id="path883"
         style="font-variation-settings:normal;opacity:1;vector-effect:none;fill:#a00a00;fill-opacity:1;stroke:#a00a00;stroke-width:0.1;stroke-linecap:butt;stroke-linejoin:miter;stroke-miterlimit:4;stroke-dasharray:none;stroke-dashoffset:0;stroke-opacity:1;stop-color:#000000;stop-opacity:1"
         d="m 28.091538,19.142279 -0.383439,0.18552 -3.870048,5.72058 -8.172553,6.60262 -2.541521,1.17985 -1.29708,-2.13682 -0.756026,-5.51594 c -0.772869,-0.42709 -1.3861782,-1.03023 -1.9373477,-1.70119 -0.3222122,-0.47238 -0.6664113,-1.07036 -0.9663509,-1.67638 l -1.0945071,1.00355 -0.7203678,2.06964 -0.2800879,1.1157 c -0.1369881,0.29677 -0.2196651,0.48527 -0.302305,0.67334 l -0.2382282,0.67231 -0.012409,0.87282 -0.3658684,0.0176 c -0.103722,0.0949 -0.1729608,0.20025 -0.023786,0.37207 l 0.1178243,0.0589 c -0.020003,0.21418 -0.025532,0.35759 -0.035142,0.51986 l 0.3529515,0.64751 -0.016536,1.89601 1.1224127,0.8878 -0.4842086,0.41341 0.8263043,0.84698 h 0.4604385 c -0.06,-0.83641 -0.6509517,-7.55522 -0.7885827,-8.63927 0.2488195,-0.0915 0.3158067,-0.40749 0.3503665,-0.70848 l 0.2754339,0.0165 0.3756898,9.33122 h 3.2494148 7.98969 c 0.540862,-0.29795 2.137741,-1.57667 8.327142,-7.39077 l 0.283702,-0.21239 0.01188,-0.57877 -0.201538,-0.15503 0.189652,-1.13275 0.301275,-3.96255 0.348298,-0.21291 -0.366384,-0.2067 0.01188,-0.33073 0.313159,-0.27182 z"
         sodipodi:nodetypes="cccccccccccccccccccccccccccccccccccccccccc" />
      <path
         style="font-variation-settings:normal;opacity:1;vector-effect:none;fill:#a00a00;fill-opacity:1;stroke:#a00a00;stroke-width:0.1;stroke-linecap:butt;stroke-linejoin:miter;stroke-miterlimit:4;stroke-dasharray:none;stroke-dashoffset:0;stroke-opacity:1;stop-color:#000000;stop-opacity:1"
         d="m 7.6335805,11.062889 c -0.61582,0.35882 -0.8569,0.94249 -1.17451,1.48024 l 0.10107,4.27174 c 0.077,0.33861 0.0228,0.91943 0.28204,0.92166 0.30257,-0.57274 0.83983,-1.2988 2.01982,-1.03943 -0.83349,-2.13617 -0.84898,-3.77442 -1.22842,-5.63421 z"
         id="path887"
         sodipodi:nodetypes="cccccc" />
      <path
         style="font-variation-settings:normal;opacity:1;vector-effect:none;fill:#7e7e7e;fill-opacity:1;stroke:#7e7e7e;stroke-width:0.1;stroke-linecap:butt;stroke-linejoin:miter;stroke-miterlimit:4;stroke-dasharray:none;stroke-dashoffset:0;stroke-opacity:1;stop-color:#000000;stop-opacity:1"
         d="m 12.68974,24.294629 0.66818,1.72055 c -1.47164,0.001 -1.70482,-0.48691 -2.28712,-0.83715 -1.4445795,-0.89333 -2.3718895,-2.03898 -2.9036695,-3.37757 -0.72941,-2.31659 -0.98298,-2.84848 -1.32495,-4.06393 0.22736,-0.64318 0.71413,-1.29853 2.01982,-1.03943 0.17984,1.40434 0.32139,2.83739 0.67062,4.11468 0,2.01444 2.5069495,3.12242 3.1571195,3.48285 z"
         id="path889"
         sodipodi:nodetypes="cccccccc" />
      <path
         style="font-variation-settings:normal;opacity:1;vector-effect:none;fill:#a00a00;fill-opacity:1;stroke:#a00a00;stroke-width:0.1;stroke-linecap:butt;stroke-linejoin:miter;stroke-miterlimit:4;stroke-dasharray:none;stroke-dashoffset:0;stroke-opacity:1;stop-color:#000000;stop-opacity:1"
         d="m 20.85093,33.867989 6.41378,-5.74892 v 0.49609 c -0.1648,0.47569 -0.38896,0.96833 -0.12992,1.32292 l 3.15373,0.11812 -2.5159,3.81166 h -0.96856 c 0.58958,-0.80791 1.05772,-1.54642 1.54143,-2.29383 0.25295,-0.43812 -0.19665,-0.51205 -0.51381,-0.19489 -1.00963,0.80086 -2.00613,1.64114 -3.00019,2.48872 h -0.51971 c 1.30702,-1.11175 3.09805,-2.48675 4.38807,-3.4159 l -0.62603,-0.0472 c -2.10051,1.79354 -3.33504,2.72587 -4.36444,3.46314 z"
         id="path898"
         sodipodi:nodetypes="ccccccccccccccc" />
      <path
         style="font-variation-settings:normal;opacity:1;vector-effect:none;fill:#b65800;fill-opacity:1;stroke:#b65800;stroke-width:0.1;stroke-linecap:butt;stroke-linejoin:miter;stroke-miterlimit:4;stroke-dasharray:none;stroke-dashoffset:0;stroke-opacity:1;stop-color:#000000;stop-opacity:1"
         d="m 27.77262,33.867859 h 2.18942 c 0.0298,-0.89646 0.79046,-1.87572 -0.0668,-2.18991 0.0904,-0.52023 0.24133,-1.07073 0.3933,-1.62175 z"
         id="path904"
         sodipodi:nodetypes="ccccc" />
      <path
         style="font-variation-settings:normal;opacity:1;vector-effect:none;fill:#b65800;fill-opacity:1;stroke:#b65800;stroke-width:0.1;stroke-linecap:butt;stroke-linejoin:miter;stroke-miterlimit:4;stroke-dasharray:none;stroke-dashoffset:0;stroke-opacity:1;stop-color:#000000;stop-opacity:1"
         d="m 30.83066,30.074299 1.50339,0.0418 c 0.11503,-1.00957 0.53406,-1.86213 0.62642,-2.80633 0.42707,0.0399 0.58715,-0.42122 0.94409,-0.32574 v 1.28624 c -1.25736,1.84036 -2.28379,3.86383 -2.99874,5.59759 l -0.66459,-1e-5 0.33335,-2.07943 c -0.30936,-0.34443 -0.37399,-0.68177 0.0827,-1.004 z"
         id="path908"
         sodipodi:nodetypes="cccccccccc" />
      <path
         style="font-variation-settings:normal;opacity:1;vector-effect:none;fill:#202020;fill-opacity:1;stroke:#202020;stroke-width:0.1;stroke-linecap:butt;stroke-linejoin:miter;stroke-miterlimit:4;stroke-dasharray:none;stroke-dashoffset:0;stroke-opacity:1;stop-color:#000000;stop-opacity:1"
         d="m 33.90456,11.960589 v -0.70871 c -0.68222,0.1828 -2.96117,4.8669 -3.18248,5.69284 l 0.76005,-0.56795 c 0.15365,-0.5734 2.00554,-4.30448 2.42243,-4.41618 z"
         id="path912"
         sodipodi:nodetypes="ccccc" />
      <path
         id="path914"
         style="font-variation-settings:normal;opacity:1;vector-effect:none;fill:#1c9200;fill-opacity:1;stroke:#1c9200;stroke-width:0.377953;stroke-linecap:butt;stroke-linejoin:miter;stroke-miterlimit:4;stroke-dasharray:none;stroke-dashoffset:0;stroke-opacity:1;stop-color:#000000;stop-opacity:1"
         d="m 125.2793,79.490234 c -4.4177,0 -6.25,3.107981 -6.25,4.732422 0.44394,2.686262 1.91095,3.929688 5.53711,3.929688 0.88882,0 2.81309,-1.092467 3.57579,-1.633405 l 0.001,-6.626079 c -0.51408,-0.124702 -2.17149,-0.402626 -2.86392,-0.402626 z"
         transform="scale(0.26458333)"
         sodipodi:nodetypes="scsccs" />
      <path
         style="font-variation-settings:normal;opacity:1;vector-effect:none;fill:#5c5c5c;fill-opacity:1;stroke:#5c5c5c;stroke-width:0.1;stroke-linecap:butt;stroke-linejoin:miter;stroke-miterlimit:4;stroke-dasharray:none;stroke-dashoffset:0;stroke-opacity:1;stop-color:#000000;stop-opacity:1"
         d="m 15.92897,30.669219 v 0.56224 c -0.0869,0.31908 -1.34179,0.86039 -2.12493,1.14929 l -0.0992,-0.66146 -0.71107,0.23978 -0.0951,-1.59164 c -0.22365,-0.4286 -0.53249,-0.87733 -0.57051,-1.45107 0.30341,0.11992 0.64333,0.45895 1.01287,0.97565 v 1.14929 l 0.33899,-0.19017 0.12403,-0.70694 c 0.55883,0.27959 0.99627,0.14234 2.12492,0.52503 z"
         id="path934"
         sodipodi:nodetypes="ccccccccccccc" />
      <path
         style="font-variation-settings:normal;opacity:1;vector-effect:none;fill:#7e7e7e;fill-opacity:1;stroke:#7e7e7e;stroke-width:0.1;stroke-linecap:butt;stroke-linejoin:miter;stroke-miterlimit:4;stroke-dasharray:none;stroke-dashoffset:0;stroke-opacity:1;stop-color:#000000;stop-opacity:1"
         d="m 18.17793,26.382149 c 1.49278,0 5.27009,-2.3018 6.29212,-3.32383 1.43942,-1.41103 2.62465,-3.07005 2.72852,-3.92327 l 0.28939,-0.14056 0.50965,-0.86376 0.79673,-1.3852 c -0.51736,-0.68338 -1.08735,-1.29002 -2.33991,-0.90124 l -0.5457,1.64538 -0.0744,1.14928 c -0.86898,1.84913 -1.72545,2.41819 -2.44739,3.175 -1.92596,1.12109 -4.59139,2.73678 -4.95267,2.73678 0.0362,0.34651 -0.22502,1.0636 -0.25634,1.83142 z"
         id="path941"
         sodipodi:nodetypes="cccccccccccc" />
      <path
         style="font-variation-settings:normal;opacity:1;vector-effect:none;fill:#7e7e7e;fill-opacity:1;stroke:#7e7e7e;stroke-width:0.1;stroke-linecap:butt;stroke-linejoin:miter;stroke-miterlimit:4;stroke-dasharray:none;stroke-dashoffset:0;stroke-opacity:1;stop-color:#000000;stop-opacity:1"
         d="m 14.83709,27.059959 1.48673,0.0245 0.10352,-3.20076 -2.07551,0.0176 z"
         id="path943"
         sodipodi:nodetypes="ccccc" />
      <path
         style="font-variation-settings:normal;opacity:1;vector-effect:none;fill:#202020;fill-opacity:1;stroke:#202020;stroke-width:0.1;stroke-linecap:butt;stroke-linejoin:miter;stroke-miterlimit:4;stroke-dasharray:none;stroke-dashoffset:0;stroke-opacity:1;stop-color:#000000;stop-opacity:1"
         d="m 14.83709,27.059959 0.21632,0.5129 1.11668,0.006 0.15373,-0.49425 z"
         id="path945" />
      <path
         style="font-variation-settings:normal;opacity:1;vector-effect:none;fill:#1c9200;fill-opacity:1;stroke:#1c9200;stroke-width:0.1;stroke-linecap:butt;stroke-linejoin:miter;stroke-miterlimit:4;stroke-dasharray:none;stroke-dashoffset:0;stroke-opacity:1;stop-color:#000000;stop-opacity:1"
         d="m 14.35183,23.901299 -0.10524,-1.36229 c -2.9192,-1.6854 -2.92176,-2.62532 -4.22119,-4.876 l -0.8039095,-2.94161 c 1.1472495,0.66237 2.6448895,1.86913 4.7588295,1.86913 3.18015,0 8.39715,-3.1561 9.78735,-3.95874 l -0.65776,4.14255 c -3.01976,3.54323 -4.51384,4.63459 -6.51888,5.67675 l -0.16369,1.43261 z"
         id="path947"
         sodipodi:nodetypes="ccccsccccc" />
      <path
         style="font-variation-settings:normal;opacity:1;vector-effect:none;fill:#202020;fill-opacity:1;stroke:#202020;stroke-width:0.1;stroke-linecap:butt;stroke-linejoin:miter;stroke-miterlimit:4;stroke-dasharray:none;stroke-dashoffset:0;stroke-opacity:1;stop-color:#000000;stop-opacity:1"
         d="m 23.61481,13.543649 0.76481,-0.51469 0.22221,-0.88987 0.37568,-4.6074701 1.64435,-1.91927 0.32814,0.19069 0.41186,-0.47748 c -0.053,-0.30046 -0.19811,-0.57968 -0.45355,-0.83343 -0.24084,-0.2665 -0.42725,-0.37097 -0.63069,-0.51973 l -0.0818,1.26722 -1.61378,1.90316 -0.36005,5.1862601 -2.46437,1.40154 c -2.16757,-2.38155 -4.43866,-4.2852501 -7.12446,-4.2746801 0.10185,-2.7636 -0.0409,-6.61628 2.40596,-9.00486001 -0.21107,0.002 -0.42304,0.003 -0.61901,0.035 -2.59744,2.59744001 -2.14147,6.58053001 -2.61619,9.01654001 -1.90765,0 -4.0821295,2.0586201 -4.7885795,4.6951401 -0.24178,-0.29735 -0.46633,-0.61839 -0.9495,-0.58382 l 1.27641,1.56477 -0.12081,-0.45731 0.42459,0.27056 c -0.46233,-1.71004 1.0019295,-3.19778 1.4035495,-3.59939 1.18028,-1.18029 2.00984,-1.4461301 3.47846,-1.4461301 2.97431,-0.16065 4.87245,2.0142101 6.84416,4.0294101 z"
         id="path958"
         sodipodi:nodetypes="cccccccccccccccccccccccccc" />
    </g>
  </g>
</svg>
